# xmcd CD database file
#
# Track frame offsets:
#	150
#	18596
#	34927
#	51677
#	68082
#	83404
#	101382
#	112188
#	128354
#	140222
#	155987
#	171859
#	187081
#	198711
#	214972
#	228809
#	244206
#
# Disc length: 3452 seconds
#
# Revision: 0
# Processed by: cddbd v1.5.2PL0 Copyright (c) Steve Scherf et al.
# Submitted via: CDex 1.51
#
DISCID=000d7a11
DTITLE=Marie Bruce - Moon Chants
DYEAR=2009
DGENRE=New Age
TTITLE0=SPR Moonchant
TTITLE1=SPR Earth, Moon and Sun
TTITLE2=SPR Dryad Awakening
TTITLE3=SPR Song of the Sylph
TTITLE4=SMR Ballad of the Beltain Fire-Nymph
TTITLE5=SMR Lady of the Sea
TTITLE6=SMR In the Arms of the Mother
TTITLE7=SMR Call to Epona
TTITLE8=AUT Persephone's Descnet
TTITLE9=AUT Demeter's Tears
TTITLE10=AUT The Wild Hunt
TTITLE11=AUT Ancestral Voices
TTITLE12=WIN Charm of Orion
TTITLE13=WIN Winter's Nocturne
TTITLE14=WIN Cakes and Ale
TTITLE15=WIN Song of the Snow Queen
TTITLE16=WIN Cosmic Dancer
EXTD=YEAR: 2009
EXTT0=
EXTT1=
EXTT2=
EXTT3=
EXTT4=
EXTT5=
EXTT6=
EXTT7=
EXTT8=
EXTT9=
EXTT10=
EXTT11=
EXTT12=
EXTT13=
EXTT14=
EXTT15=
EXTT16=
PLAYORDER=
